# Blender 4.0.2
# www.blender.org
mtllib wall.mtl
o Plane
v -5.000000 -1.500000 -0.000000
v 5.000000 -1.500000 -0.000000
v -5.000000 1.500000 0.000000
v 5.000000 1.500000 0.000000
v -5.000000 1.227273 -0.200000
v -5.000000 0.954545 0.000000
v -5.000000 0.681818 0.000000
v -5.000000 0.409091 0.000000
v -5.000000 0.136364 0.000000
v -5.000000 -0.136364 -0.000000
v -5.000000 -0.409091 -0.000000
v -5.000000 -0.681818 -0.000000
v -5.000000 -0.954545 -0.000000
v -5.000000 -1.227273 -0.200000
v 5.000000 -1.227273 -0.200000
v 5.000000 -0.954545 -0.000000
v 5.000000 -0.681818 -0.000000
v 5.000000 -0.409091 -0.000000
v 5.000000 -0.136364 -0.000000
v 5.000000 0.136364 0.000000
v 5.000000 0.409091 0.000000
v 5.000000 0.681818 0.000000
v 5.000000 0.954545 0.000000
v 5.000000 1.227273 -0.200000
v -5.000000 0.681818 -0.191420
v -5.000000 0.409091 -0.191420
v 5.000000 0.409091 -0.191420
v 5.000000 0.681818 -0.191420
v -5.000000 0.136364 -0.195978
v -5.000000 -0.136364 -0.195978
v 5.000000 -0.136364 -0.195978
v 5.000000 0.136364 -0.195978
vn -0.0000 -0.5914 0.8064
vn -0.0000 0.5914 0.8064
vn -0.0000 -0.0000 1.0000
vn 1.0000 -0.0000 -0.0000
vn -0.0000 -1.0000 -0.0000
vn -1.0000 -0.0000 -0.0000
vn -0.0000 1.0000 -0.0000
vt 0.000000 0.909091
vt 1.000000 0.909091
vt 1.000000 1.000000
vt 0.000000 1.000000
vt 0.000000 0.000000
vt 1.000000 0.000000
vt 1.000000 0.090909
vt 0.000000 0.090909
vt 1.000000 0.181818
vt 0.000000 0.181818
vt 1.000000 0.272727
vt 0.000000 0.272727
vt 1.000000 0.363636
vt 0.000000 0.363636
vt 1.000000 0.454545
vt 0.000000 0.454545
vt 0.000000 0.545455
vt 1.000000 0.545455
vt 1.000000 0.636364
vt 0.000000 0.636364
vt 1.000000 0.727273
vt 0.000000 0.727273
vt 1.000000 0.818182
vt 0.000000 0.818182
s 0
f 5/1/1 24/2/1 4/3/1 3/4/1
f 1/5/2 2/6/2 15/7/2 14/8/2
f 14/8/1 15/7/1 16/9/1 13/10/1
f 13/10/3 16/9/3 17/11/3 12/12/3
f 12/12/3 17/11/3 18/13/3 11/14/3
f 11/14/3 18/13/3 19/15/3 10/16/3
f 9/5/4 10/5/4 30/5/4 29/5/4
f 9/17/3 20/18/3 21/19/3 8/20/3
f 22/21/5 7/22/5 25/22/5 28/21/5
f 7/22/3 22/21/3 23/23/3 6/24/3
f 6/24/2 23/23/2 24/2/2 5/1/2
f 26/20/3 27/19/3 28/21/3 25/22/3
f 7/5/4 8/5/4 26/5/4 25/5/4
f 21/5/6 22/5/6 28/5/6 27/5/6
f 8/20/7 21/19/7 27/19/7 26/20/7
f 30/16/3 31/15/3 32/18/3 29/17/3
f 20/18/5 9/17/5 29/17/5 32/18/5
f 19/5/6 20/5/6 32/5/6 31/5/6
f 10/16/7 19/15/7 31/15/7 30/16/7
