# Blender 4.0.2
# www.blender.org
mtllib wall_door.mtl
o Cube
v -0.575000 -1.250000 0.115000
v -0.575000 -1.150000 0.125000
v -0.625000 -1.150000 0.115000
v -0.575000 1.150000 0.125000
v -0.575000 1.250000 0.115000
v -0.625000 1.150000 0.115000
v -0.575000 -1.250000 -0.115000
v -0.625000 -1.150000 -0.115000
v -0.575000 -1.150000 -0.125000
v -0.575000 1.250000 -0.115000
v -0.575000 1.150000 -0.125000
v -0.625000 1.150000 -0.115000
v 0.575000 -1.250000 0.115000
v 0.625000 -1.150000 0.115000
v 0.575000 -1.150000 0.125000
v 0.575000 1.250000 0.115000
v 0.575000 1.150000 0.125000
v 0.625000 1.150000 0.115000
v 0.575000 -1.250000 -0.115000
v 0.575000 -1.150000 -0.125000
v 0.625000 -1.150000 -0.115000
v 0.575000 1.250000 -0.115000
v 0.625000 1.150000 -0.115000
v 0.575000 1.150000 -0.125000
vn -0.0000 -0.0000 1.0000
vn 1.0000 -0.0000 -0.0000
vn -0.0000 1.0000 -0.0000
vn -1.0000 -0.0000 -0.0000
vn -0.0000 -0.0000 -1.0000
vn -0.1952 -0.0976 0.9759
vn -0.1952 0.0976 0.9759
vn -0.1952 -0.0976 -0.9759
vn -0.1952 0.0976 -0.9759
vn 0.1952 -0.0976 0.9759
vn 0.1952 0.0976 0.9759
vn 0.1952 -0.0976 -0.9759
vn 0.1952 0.0976 -0.9759
vn -0.8944 -0.4472 -0.0000
vn -0.1961 -0.0000 0.9806
vn -0.8944 0.4472 -0.0000
vn -0.1961 -0.0000 -0.9806
vn -0.0000 -0.0995 -0.9950
vn -0.0000 0.0995 -0.9950
vn 0.1961 -0.0000 -0.9806
vn 0.8944 -0.4472 -0.0000
vn 0.8944 0.4472 -0.0000
vn 0.1961 -0.0000 0.9806
vn -0.0000 -0.0995 0.9950
vn -0.0000 0.0995 0.9950
vn -0.0000 -1.0000 -0.0000
vt 0.385000 0.760000
vt 0.615000 0.760000
vt 0.615000 0.990000
vt 0.385000 0.990000
vt 0.385000 0.510000
vt 0.615000 0.510000
vt 0.615000 0.740000
vt 0.385000 0.740000
vt 0.635000 0.510000
vt 0.865000 0.510000
vt 0.865000 0.740000
vt 0.635000 0.740000
vt 0.385000 0.010000
vt 0.615000 0.010000
vt 0.615000 0.240000
vt 0.385000 0.240000
vt 0.385000 0.260000
vt 0.615000 0.260000
vt 0.615000 0.490000
vt 0.385000 0.490000
vt 0.135000 0.740000
vt 0.135000 0.750000
vt 0.125000 0.740000
vt 0.615000 0.000000
vt 0.625000 0.010000
vt 0.135000 0.510000
vt 0.125000 0.510000
vt 0.135000 0.500000
vt 0.625000 0.240000
vt 0.615000 0.250000
vt 0.365000 0.740000
vt 0.375000 0.740000
vt 0.365000 0.750000
vt 0.625000 0.760000
vt 0.615000 0.750000
vt 0.365000 0.510000
vt 0.365000 0.500000
vt 0.375000 0.510000
vt 0.625000 0.490000
vt 0.615000 0.500000
vt 0.385000 0.000000
vt 0.625000 0.260000
vt 0.625000 0.990000
s 0
usemtl Material.001
f 15/1/1 17/2/1 4/3/1 2/4/1
f 21/5/2 23/6/2 18/7/2 14/8/2
f 22/9/3 10/10/3 5/11/3 16/12/3
f 3/13/4 6/14/4 12/15/4 8/16/4
f 9/17/5 11/18/5 24/19/5 20/20/5
f 1/21/6 2/22/6 3/23/6
f 4/24/7 5/25/7 6/14/7
f 7/26/8 8/27/8 9/28/8
f 10/29/9 11/30/9 12/15/9
f 13/31/10 14/32/10 15/33/10
f 16/34/11 17/2/11 18/35/11
f 19/36/12 20/37/12 21/38/12
f 22/39/13 23/40/13 24/19/13
f 7/26/14 1/21/14 3/23/14 8/27/14
f 2/41/15 4/24/15 6/14/15 3/13/15
f 5/25/16 10/29/16 12/15/16 6/14/16
f 11/18/17 9/17/17 8/16/17 12/15/17
f 19/36/18 7/26/18 9/28/18 20/37/18
f 10/42/19 22/39/19 24/19/19 11/18/19
f 23/6/20 21/5/20 20/20/20 24/19/20
f 13/31/21 19/36/21 21/5/21 14/8/21
f 22/9/22 16/12/22 18/7/22 23/6/22
f 17/2/23 15/1/23 14/8/23 18/7/23
f 1/21/24 13/31/24 15/33/24 2/22/24
f 16/34/25 5/43/25 4/3/25 17/2/25
f 7/26/26 19/36/26 13/31/26 1/21/26
o Cube.001
v 0.675000 -1.250000 0.115000
v 0.675000 -1.150000 0.125000
v 0.625000 -1.150000 0.115000
v 0.675000 1.150000 0.125000
v 0.675000 1.250000 0.115000
v 0.625000 1.150000 0.115000
v 0.675000 -1.250000 -0.115000
v 0.625000 -1.150000 -0.115000
v 0.675000 -1.150000 -0.125000
v 0.675000 1.250000 -0.115000
v 0.675000 1.150000 -0.125000
v 0.625000 1.150000 -0.115000
v 1.825000 -1.250000 0.115000
v 1.875000 -1.150000 0.115000
v 1.825000 -1.150000 0.125000
v 1.825000 1.250000 0.115000
v 1.825000 1.150000 0.125000
v 1.875000 1.150000 0.115000
v 1.825000 -1.250000 -0.115000
v 1.825000 -1.150000 -0.125000
v 1.875000 -1.150000 -0.115000
v 1.825000 1.250000 -0.115000
v 1.875000 1.150000 -0.115000
v 1.825000 1.150000 -0.125000
vn -0.0000 -0.0000 1.0000
vn 1.0000 -0.0000 -0.0000
vn -0.0000 1.0000 -0.0000
vn -1.0000 -0.0000 -0.0000
vn -0.0000 -0.0000 -1.0000
vn -0.1952 -0.0976 0.9759
vn -0.1952 0.0976 0.9759
vn -0.1952 -0.0976 -0.9759
vn -0.1952 0.0976 -0.9759
vn 0.1952 -0.0976 0.9759
vn 0.1952 0.0976 0.9759
vn 0.1952 -0.0976 -0.9759
vn 0.1952 0.0976 -0.9759
vn -0.8944 -0.4472 -0.0000
vn -0.1961 -0.0000 0.9806
vn -0.8944 0.4472 -0.0000
vn -0.1961 -0.0000 -0.9806
vn -0.0000 -0.0995 -0.9950
vn -0.0000 0.0995 -0.9950
vn 0.1961 -0.0000 -0.9806
vn 0.8944 -0.4472 -0.0000
vn 0.8944 0.4472 -0.0000
vn 0.1961 -0.0000 0.9806
vn -0.0000 -0.0995 0.9950
vn -0.0000 0.0995 0.9950
vn -0.0000 -1.0000 -0.0000
vt 0.385000 0.760000
vt 0.615000 0.760000
vt 0.615000 0.990000
vt 0.385000 0.990000
vt 0.385000 0.510000
vt 0.615000 0.510000
vt 0.615000 0.740000
vt 0.385000 0.740000
vt 0.635000 0.510000
vt 0.865000 0.510000
vt 0.865000 0.740000
vt 0.635000 0.740000
vt 0.385000 0.010000
vt 0.615000 0.010000
vt 0.615000 0.240000
vt 0.385000 0.240000
vt 0.385000 0.260000
vt 0.615000 0.260000
vt 0.615000 0.490000
vt 0.385000 0.490000
vt 0.135000 0.740000
vt 0.135000 0.750000
vt 0.125000 0.740000
vt 0.615000 0.000000
vt 0.625000 0.010000
vt 0.135000 0.510000
vt 0.125000 0.510000
vt 0.135000 0.500000
vt 0.625000 0.240000
vt 0.615000 0.250000
vt 0.365000 0.740000
vt 0.375000 0.740000
vt 0.365000 0.750000
vt 0.625000 0.760000
vt 0.615000 0.750000
vt 0.365000 0.510000
vt 0.365000 0.500000
vt 0.375000 0.510000
vt 0.625000 0.490000
vt 0.615000 0.500000
vt 0.385000 0.000000
vt 0.625000 0.260000
vt 0.625000 0.990000
s 0
usemtl Material.001
f 39/44/27 41/45/27 28/46/27 26/47/27
f 45/48/28 47/49/28 42/50/28 38/51/28
f 46/52/29 34/53/29 29/54/29 40/55/29
f 27/56/30 30/57/30 36/58/30 32/59/30
f 33/60/31 35/61/31 48/62/31 44/63/31
f 25/64/32 26/65/32 27/66/32
f 28/67/33 29/68/33 30/57/33
f 31/69/34 32/70/34 33/71/34
f 34/72/35 35/73/35 36/58/35
f 37/74/36 38/75/36 39/76/36
f 40/77/37 41/45/37 42/78/37
f 43/79/38 44/80/38 45/81/38
f 46/82/39 47/83/39 48/62/39
f 31/69/40 25/64/40 27/66/40 32/70/40
f 26/84/41 28/67/41 30/57/41 27/56/41
f 29/68/42 34/72/42 36/58/42 30/57/42
f 35/61/43 33/60/43 32/59/43 36/58/43
f 43/79/44 31/69/44 33/71/44 44/80/44
f 34/85/45 46/82/45 48/62/45 35/61/45
f 47/49/46 45/48/46 44/63/46 48/62/46
f 37/74/47 43/79/47 45/48/47 38/51/47
f 46/52/48 40/55/48 42/50/48 47/49/48
f 41/45/49 39/44/49 38/51/49 42/50/49
f 25/64/50 37/74/50 39/76/50 26/65/50
f 40/77/51 29/86/51 28/46/51 41/45/51
f 31/69/52 43/79/52 37/74/52 25/64/52
o Cube.004
v -0.819541 1.350000 0.230000
v -0.945153 1.330000 0.230000
v -0.819541 1.330000 0.250000
v 2.069541 1.330000 0.250000
v 2.195153 1.330000 0.230000
v 2.069541 1.350000 0.230000
v -0.945153 1.330000 -0.230000
v -0.819541 1.350000 -0.230000
v -0.819541 1.330000 -0.250000
v 2.069541 1.350000 -0.230000
v 2.195153 1.330000 -0.230000
v 2.069541 1.330000 -0.250000
v -0.945153 1.000000 0.230000
v -0.819541 1.000000 0.250000
v 2.069541 1.000000 0.250000
v 2.195153 1.000000 0.230000
v -0.819541 1.000000 -0.250000
v -0.945153 1.000000 -0.230000
v 2.195153 1.000000 -0.230000
v 2.069541 1.000000 -0.250000
v 0.625000 1.330000 0.250000
v 0.625000 1.350000 0.230000
v 0.625000 1.330000 -0.250000
v 0.625000 1.350000 -0.230000
v 0.625000 1.000000 -0.230000
v 0.625000 1.020000 -0.250000
v 0.625000 1.020000 0.250000
v 0.625000 1.000000 0.230000
v -0.160077 1.330000 -0.250000
v -0.160077 1.350000 -0.230000
v -0.160077 1.000000 -0.230000
v -0.160077 1.020000 -0.250000
v -0.160077 1.020000 0.250000
v -0.160077 1.000000 0.230000
v -0.160077 1.350000 0.230000
v -0.160077 1.330000 0.250000
v -0.552615 1.350000 -0.230000
v -0.552615 1.330000 -0.250000
v -0.427003 1.000000 -0.230000
v -0.552615 0.980000 -0.230000
v -0.678227 1.020000 -0.250000
v -0.427003 1.000000 0.230000
v -0.678227 1.020000 0.250000
v -0.552615 0.980000 0.230000
v -0.552615 1.350000 0.230000
v -0.552615 1.330000 0.250000
v 1.410076 1.330000 0.250000
v 1.410076 1.350000 0.230000
v 1.410076 1.350000 -0.230000
v 1.410076 1.330000 -0.250000
v 1.410076 1.020000 -0.250000
v 1.410076 1.000000 -0.230000
v 1.410076 1.000000 0.230000
v 1.410076 1.020000 0.250000
v 1.802615 1.350000 0.230000
v 1.802615 1.330000 0.250000
v 1.802615 1.350000 -0.230000
v 1.802615 1.330000 -0.250000
v 1.928227 1.020000 -0.250000
v 1.802615 0.980000 -0.230000
v 1.677002 1.000000 -0.230000
v 1.677003 1.000000 0.230000
v 1.802615 0.980000 0.230000
v 1.928227 1.020000 0.250000
v -0.678227 -1.230000 -0.250000
v -0.552615 -1.230000 -0.230000
v -0.678227 -1.250000 -0.230000
v -0.819541 -1.230000 -0.250000
v -0.819541 -1.250000 -0.230000
v -0.945153 -1.230000 -0.230000
v -0.945153 -1.230000 0.230000
v -0.819541 -1.250000 0.230000
v -0.819541 -1.230000 0.250000
v 2.195153 -1.230000 -0.230000
v 2.069541 -1.250000 -0.230000
v 2.069541 -1.230000 -0.250000
v 2.195153 -1.230000 0.230000
v 2.069541 -1.230000 0.250000
v 2.069541 -1.250000 0.230000
v -0.678227 -1.230000 0.250000
v -0.678227 -1.250000 0.230000
v -0.552615 -1.230000 0.230000
v 1.928227 -1.230000 -0.250000
v 1.928227 -1.250000 -0.230000
v 1.802615 -1.230000 -0.230000
v 1.928227 -1.230000 0.250000
v 1.802615 -1.230000 0.230000
v 1.928227 -1.250000 0.230000
vn 1.0000 -0.0000 -0.0000
vn -1.0000 -0.0000 -0.0000
vn -0.0000 1.0000 -0.0000
vn -0.0000 -0.0000 1.0000
vn -0.0000 -0.0000 -1.0000
vn -0.0000 -1.0000 -0.0000
vn -0.1119 0.7027 0.7027
vn 0.1119 0.7027 0.7027
vn -0.1119 0.7027 -0.7027
vn 0.1119 0.7027 -0.7027
vn 0.0503 -0.3158 -0.9475
vn 0.0503 -0.3158 0.9475
vn -0.0503 -0.3158 -0.9475
vn -0.0503 -0.3158 0.9475
vn 0.1119 -0.7027 -0.7027
vn -0.1119 -0.7027 -0.7027
vn -0.1119 -0.7027 0.7027
vn 0.1119 -0.7027 0.7027
vn -0.1572 0.9876 -0.0000
vn -0.0000 0.7071 0.7071
vn 0.1572 0.9876 -0.0000
vn -0.0000 0.7071 -0.7071
vn -0.1572 -0.0000 -0.9876
vn 0.1572 -0.0000 -0.9876
vn -0.1572 -0.0000 0.9876
vn 0.1572 -0.0000 0.9876
vn -0.0000 -0.7071 -0.7071
vn -0.0000 -0.7071 0.7071
vn 0.1572 -0.9876 -0.0000
vn -0.1572 -0.9876 -0.0000
vt 0.625000 0.510000
vt 0.860714 0.510000
vt 0.860714 0.740000
vt 0.625000 0.740000
vt 0.375000 0.740000
vt 0.375000 0.510000
vt 0.375000 0.740000
vt 0.593750 0.010000
vt 0.615000 0.010000
vt 0.615000 0.240000
vt 0.593750 0.240000
vt 0.385000 0.750000
vt 0.396250 0.764286
vt 0.406250 0.985714
vt 0.385000 0.985714
vt 0.385000 0.264286
vt 0.406250 0.264286
vt 0.396250 0.485714
vt 0.385000 0.500000
vt 0.500000 0.764286
vt 0.562500 0.764286
vt 0.562500 0.985714
vt 0.500000 0.985714
vt 0.406250 0.010000
vt 0.437500 0.010000
vt 0.437500 0.240000
vt 0.406250 0.240000
vt 0.500000 0.510000
vt 0.562500 0.510000
vt 0.562500 0.740000
vt 0.500000 0.740000
vt 0.500000 0.010000
vt 0.562500 0.010000
vt 0.562500 0.240000
vt 0.500000 0.240000
vt 0.437500 0.264286
vt 0.437500 0.485714
vt 0.416250 0.510000
vt 0.437500 0.510000
vt 0.437500 0.740000
vt 0.416250 0.740000
vt 0.437500 0.764286
vt 0.437500 0.985714
vt 0.406250 0.510000
vt 0.406250 0.740000
vt 0.406250 0.740000
vt 0.406250 0.510000
vt 0.603750 0.764286
vt 0.615000 0.750000
vt 0.615000 0.985714
vt 0.593750 0.985714
vt 0.593750 0.264286
vt 0.615000 0.264286
vt 0.615000 0.500000
vt 0.603750 0.485714
vt 0.139286 0.510000
vt 0.139286 0.740000
vt 0.500000 0.264286
vt 0.562500 0.264286
vt 0.562500 0.485714
vt 0.500000 0.485714
vt 0.593750 0.740000
vt 0.593750 0.510000
vt 0.593750 0.510000
vt 0.593750 0.740000
vt 0.583750 0.510000
vt 0.583750 0.740000
vt 0.603750 0.510000
vt 0.615000 0.510000
vt 0.615000 0.740000
vt 0.603750 0.740000
vt 0.396250 0.750000
vt 0.385000 0.750000
vt 0.385000 0.510000
vt 0.396250 0.510000
vt 0.396250 0.740000
vt 0.385000 0.740000
vt 0.396250 0.500000
vt 0.396250 0.500000
vt 0.385000 0.500000
vt 0.603750 0.750000
vt 0.603750 0.750000
vt 0.615000 0.750000
vt 0.603750 0.500000
vt 0.603750 0.500000
vt 0.125000 0.740000
vt 0.139286 0.750000
vt 0.615000 0.000000
vt 0.625000 0.010000
vt 0.125000 0.510000
vt 0.139286 0.500000
vt 0.625000 0.240000
vt 0.615000 0.250000
vt 0.593750 0.000000
vt 0.385000 0.240000
vt 0.375000 0.500000
vt 0.625000 0.264286
vt 0.625000 0.500000
vt 0.375000 0.750000
vt 0.625000 0.750000
vt 0.625000 0.985714
vt 0.437500 0.000000
vt 0.500000 0.000000
vt 0.406250 0.000000
vt 0.385000 0.000000
vt 0.385000 0.010000
vt 0.562500 0.000000
s 0
usemtl Material.002
f 67/87/53 59/88/53 53/89/53 64/90/53
f 61/91/54 66/92/54 118/92/54 119/93/54
f 67/87/53 64/90/53 125/90/53 122/87/53
f 103/94/55 54/95/55 58/96/55 105/97/55
f 62/98/56 91/99/56 94/100/56 51/101/56
f 57/102/57 86/103/57 89/104/57 65/105/57
f 75/106/56 102/107/56 95/108/56 69/109/56
f 93/110/55 83/111/55 78/112/55 85/113/55
f 73/114/58 100/115/58 101/116/58 76/117/58
f 70/118/55 96/119/55 97/120/55 72/121/55
f 86/103/57 77/122/57 80/123/57 89/104/57
f 87/124/58 79/125/58 82/126/58 90/127/58
f 91/99/56 81/128/56 84/129/56 94/100/56
f 88/130/53 92/131/53 130/132/53 114/133/53
f 112/134/56 63/135/56 52/136/56 104/137/56
f 102/107/56 112/134/56 104/137/56 95/108/56
f 106/138/57 60/139/57 68/140/57 107/141/57
f 55/142/54 66/92/54 61/91/54 50/143/54
f 71/144/57 98/145/57 99/146/57 74/147/57
f 79/125/58 73/114/58 76/117/58 82/126/58
f 77/122/57 71/144/57 74/147/57 80/123/57
f 81/128/56 75/106/56 69/109/56 84/129/56
f 96/119/55 103/94/55 105/97/55 97/120/55
f 111/148/54 108/149/54 133/150/54 135/151/54
f 100/115/58 109/152/58 110/153/58 101/116/58
f 98/145/57 106/138/57 107/141/57 99/146/57
f 132/154/58 123/155/58 127/156/58 136/157/58
f 91/158/56 62/98/56 121/159/56 128/158/56
f 117/160/58 115/161/58 129/162/58 120/163/58
f 65/105/57 89/164/57 113/165/57 116/166/57
f 63/135/56 112/167/56 134/168/56 126/169/56
f 107/170/57 68/140/57 124/140/57 131/171/57
f 83/111/55 70/118/55 72/121/55 78/112/55
f 49/172/59 50/143/59 51/173/59
f 52/174/60 53/175/60 54/95/60
f 55/142/61 56/176/61 57/177/61
f 58/96/62 59/178/62 60/179/62
f 87/124/63 88/130/63 89/104/63
f 90/127/64 91/158/64 92/131/64
f 107/170/65 108/149/65 109/152/65
f 110/153/66 111/148/66 112/134/66
f 113/165/67 114/133/67 115/161/67
f 116/166/68 117/160/68 118/92/68
f 119/93/69 120/163/69 121/159/69
f 122/87/67 123/155/67 124/140/67
f 125/90/70 126/169/70 127/156/70
f 128/158/70 129/162/70 130/132/70
f 131/171/68 132/154/68 133/150/68
f 134/168/69 135/151/69 136/157/69
f 55/142/71 50/143/71 49/172/71 56/176/71
f 104/180/72 52/174/72 54/95/72 103/94/72
f 53/175/73 59/178/73 58/96/73 54/95/73
f 86/103/74 57/102/74 56/181/74 85/113/74
f 66/92/75 55/142/75 57/177/75 65/182/75
f 59/183/76 67/184/76 68/140/76 60/139/76
f 50/143/77 61/91/77 62/185/77 51/173/77
f 64/186/78 53/187/78 52/136/78 63/135/78
f 84/188/72 69/189/72 70/118/72 83/111/72
f 98/145/74 71/144/74 72/121/74 97/120/74
f 100/115/79 73/114/79 74/147/79 99/146/79
f 102/107/80 75/106/80 76/117/80 101/116/80
f 71/144/74 77/122/74 78/112/74 72/121/74
f 73/114/79 79/125/79 80/123/79 74/147/79
f 75/106/80 81/128/80 82/126/80 76/117/80
f 94/190/72 84/188/72 83/111/72 93/110/72
f 77/122/74 86/103/74 85/113/74 78/112/74
f 79/125/79 87/124/79 89/104/79 80/123/79
f 81/128/80 91/99/80 90/127/80 82/126/80
f 51/191/72 94/190/72 93/110/72 49/192/72
f 87/124/81 90/127/81 92/131/81 88/130/81
f 69/189/72 95/193/72 96/119/72 70/118/72
f 106/138/74 98/145/74 97/120/74 105/97/74
f 109/152/79 100/115/79 99/146/79 107/141/79
f 112/134/80 102/107/80 101/116/80 110/153/80
f 95/193/72 104/180/72 103/94/72 96/119/72
f 60/139/74 106/138/74 105/97/74 58/96/74
f 108/149/82 111/148/82 110/153/82 109/152/82
f 115/161/79 117/160/79 116/166/79 113/165/79
f 119/93/82 118/92/82 117/160/82 120/163/82
f 122/87/81 125/90/81 127/156/81 123/155/81
f 128/158/80 121/159/80 120/163/80 129/162/80
f 114/133/81 130/132/81 129/162/81 115/161/81
f 123/155/79 132/154/79 131/171/79 124/140/79
f 126/169/80 134/168/80 136/157/80 127/156/80
f 132/154/82 136/157/82 135/151/82 133/150/82
f 91/158/78 128/158/78 130/132/78 92/131/78
f 113/165/76 89/164/76 88/130/76 114/133/76
f 61/91/77 119/93/77 121/159/77 62/98/77
f 65/105/75 116/166/75 118/92/75 66/92/75
f 107/170/75 131/171/75 133/150/75 108/149/75
f 134/168/77 112/167/77 111/148/77 135/151/77
f 125/90/78 64/90/78 63/135/78 126/169/78
f 124/140/76 68/140/76 67/87/76 122/87/76
f 49/192/55 93/110/55 85/113/55 56/181/55
