# Blender 4.0.2
# www.blender.org
mtllib plate.mtl
o Cylinder
v 0.000000 0.017559 -0.180000
v 0.000000 0.005000 -0.115759
v 0.035116 0.017559 -0.176541
v 0.022583 0.005000 -0.113535
v 0.068883 0.017559 -0.166298
v 0.044299 0.005000 -0.106947
v 0.100003 0.017559 -0.149665
v 0.064312 0.005000 -0.096250
v 0.127279 0.017559 -0.127279
v 0.081854 0.005000 -0.081854
v 0.149665 0.017559 -0.100003
v 0.096250 0.005000 -0.064312
v 0.166298 0.017559 -0.068883
v 0.106947 0.005000 -0.044299
v 0.176541 0.017559 -0.035116
v 0.113535 0.005000 -0.022583
v 0.180000 0.017559 0.000000
v 0.115759 0.005000 0.000000
v 0.176541 0.017559 0.035116
v 0.113535 0.005000 0.022583
v 0.166298 0.017559 0.068883
v 0.106947 0.005000 0.044299
v 0.149665 0.017559 0.100003
v 0.096250 0.005000 0.064312
v 0.127279 0.017559 0.127279
v 0.081854 0.005000 0.081854
v 0.100003 0.017559 0.149665
v 0.064312 0.005000 0.096250
v 0.068883 0.017559 0.166298
v 0.044299 0.005000 0.106947
v 0.035116 0.017559 0.176541
v 0.022583 0.005000 0.113535
v 0.000000 0.017559 0.180000
v 0.000000 0.005000 0.115759
v -0.035116 0.017559 0.176541
v -0.022583 0.005000 0.113535
v -0.068883 0.017559 0.166298
v -0.044299 0.005000 0.106947
v -0.100003 0.017559 0.149665
v -0.064312 0.005000 0.096250
v -0.127279 0.017559 0.127279
v -0.081854 0.005000 0.081854
v -0.149665 0.017559 0.100003
v -0.096250 0.005000 0.064312
v -0.166298 0.017559 0.068883
v -0.106947 0.005000 0.044299
v -0.176541 0.017559 0.035116
v -0.113535 0.005000 0.022583
v -0.180000 0.017559 0.000000
v -0.115759 0.005000 0.000000
v -0.176541 0.017559 -0.035116
v -0.113535 0.005000 -0.022583
v -0.166298 0.017559 -0.068883
v -0.106947 0.005000 -0.044299
v -0.149665 0.017559 -0.100003
v -0.096250 0.005000 -0.064312
v -0.127279 0.017559 -0.127279
v -0.081854 0.005000 -0.081854
v -0.100003 0.017559 -0.149665
v -0.064312 0.005000 -0.096250
v -0.068883 0.017559 -0.166298
v -0.044299 0.005000 -0.106947
v -0.035116 0.017559 -0.176541
v -0.022583 0.005000 -0.113535
v 0.035116 0.027559 -0.176541
v 0.000000 0.027559 -0.180000
v 0.068883 0.027559 -0.166298
v 0.100003 0.027559 -0.149665
v 0.127279 0.027559 -0.127279
v 0.149665 0.027559 -0.100003
v 0.166298 0.027559 -0.068883
v 0.176541 0.027559 -0.035116
v 0.180000 0.027559 0.000000
v 0.176541 0.027559 0.035116
v 0.166298 0.027559 0.068883
v 0.149665 0.027559 0.100003
v 0.127279 0.027559 0.127279
v 0.100003 0.027559 0.149665
v 0.068883 0.027559 0.166298
v 0.035116 0.027559 0.176541
v 0.000000 0.027559 0.180000
v -0.035116 0.027559 0.176541
v -0.068883 0.027559 0.166298
v -0.100003 0.027559 0.149665
v -0.127279 0.027559 0.127279
v -0.149665 0.027559 0.100003
v -0.166298 0.027559 0.068883
v -0.176541 0.027559 0.035116
v -0.180000 0.027559 0.000000
v -0.176541 0.027559 -0.035116
v -0.166298 0.027559 -0.068883
v -0.149665 0.027559 -0.100003
v -0.127279 0.027559 -0.127279
v -0.100003 0.027559 -0.149665
v -0.068883 0.027559 -0.166298
v -0.035116 0.027559 -0.176541
vn 0.0980 -0.0000 -0.9952
vn 0.2903 -0.0000 -0.9569
vn 0.4714 -0.0000 -0.8819
vn 0.6344 -0.0000 -0.7730
vn 0.7730 -0.0000 -0.6344
vn 0.8819 -0.0000 -0.4714
vn 0.9569 -0.0000 -0.2903
vn 0.9952 -0.0000 -0.0980
vn 0.9952 -0.0000 0.0980
vn 0.9569 -0.0000 0.2903
vn 0.8819 -0.0000 0.4714
vn 0.7730 -0.0000 0.6344
vn 0.6344 -0.0000 0.7730
vn 0.4714 -0.0000 0.8819
vn 0.2903 -0.0000 0.9569
vn 0.0980 -0.0000 0.9952
vn -0.0980 -0.0000 0.9952
vn -0.2903 -0.0000 0.9569
vn -0.4714 -0.0000 0.8819
vn -0.6344 -0.0000 0.7730
vn -0.7730 -0.0000 0.6344
vn -0.8819 -0.0000 0.4714
vn -0.9569 -0.0000 0.2903
vn -0.9952 -0.0000 0.0980
vn -0.9952 -0.0000 -0.0980
vn -0.9569 -0.0000 -0.2903
vn -0.8819 -0.0000 -0.4714
vn -0.7730 -0.0000 -0.6344
vn -0.6344 -0.0000 -0.7730
vn -0.4714 -0.0000 -0.8819
vn -0.0000 1.0000 -0.0000
vn -0.2903 -0.0000 -0.9569
vn -0.0980 -0.0000 -0.9952
vn -0.0000 -1.0000 -0.0000
vn -0.0326 0.9430 0.3311
vn -0.0966 0.9430 0.3184
vn -0.1569 0.9430 0.2935
vn -0.2111 0.9430 0.2572
vn -0.2572 0.9430 0.2111
vn -0.2935 0.9430 0.1569
vn -0.3184 0.9430 0.0966
vn -0.3311 0.9430 0.0326
vn -0.3311 0.9430 -0.0326
vn -0.3184 0.9430 -0.0966
vn -0.2935 0.9430 -0.1569
vn -0.2572 0.9430 -0.2111
vn -0.2111 0.9430 -0.2572
vn -0.1569 0.9430 -0.2935
vn -0.0966 0.9430 -0.3184
vn -0.0326 0.9430 -0.3311
vn 0.0326 0.9430 -0.3311
vn 0.0966 0.9430 -0.3184
vn 0.1569 0.9430 -0.2935
vn 0.2111 0.9430 -0.2572
vn 0.2572 0.9430 -0.2111
vn 0.2935 0.9430 -0.1569
vn 0.3184 0.9430 -0.0966
vn 0.3311 0.9430 -0.0326
vn 0.3311 0.9430 0.0326
vn 0.3184 0.9430 0.0966
vn 0.2935 0.9430 0.1569
vn 0.2572 0.9430 0.2111
vn 0.2111 0.9430 0.2572
vn 0.1569 0.9430 0.2935
vn 0.0966 0.9430 0.3184
vn 0.0326 0.9430 0.3311
vt 1.000000 0.500000
vt 1.000000 1.000000
vt 0.968750 1.000000
vt 0.968750 0.500000
vt 0.937500 1.000000
vt 0.937500 0.500000
vt 0.906250 1.000000
vt 0.906250 0.500000
vt 0.875000 1.000000
vt 0.875000 0.500000
vt 0.843750 1.000000
vt 0.843750 0.500000
vt 0.812500 1.000000
vt 0.812500 0.500000
vt 0.781250 1.000000
vt 0.781250 0.500000
vt 0.750000 1.000000
vt 0.750000 0.500000
vt 0.718750 1.000000
vt 0.718750 0.500000
vt 0.687500 1.000000
vt 0.687500 0.500000
vt 0.656250 1.000000
vt 0.656250 0.500000
vt 0.625000 1.000000
vt 0.625000 0.500000
vt 0.593750 1.000000
vt 0.593750 0.500000
vt 0.562500 1.000000
vt 0.562500 0.500000
vt 0.531250 1.000000
vt 0.531250 0.500000
vt 0.500000 1.000000
vt 0.500000 0.500000
vt 0.468750 1.000000
vt 0.468750 0.500000
vt 0.437500 1.000000
vt 0.437500 0.500000
vt 0.406250 1.000000
vt 0.406250 0.500000
vt 0.375000 1.000000
vt 0.375000 0.500000
vt 0.343750 1.000000
vt 0.343750 0.500000
vt 0.312500 1.000000
vt 0.312500 0.500000
vt 0.281250 1.000000
vt 0.281250 0.500000
vt 0.250000 1.000000
vt 0.250000 0.500000
vt 0.218750 1.000000
vt 0.218750 0.500000
vt 0.187500 1.000000
vt 0.187500 0.500000
vt 0.156250 1.000000
vt 0.156250 0.500000
vt 0.125000 1.000000
vt 0.125000 0.500000
vt 0.093750 1.000000
vt 0.093750 0.500000
vt 0.062500 1.000000
vt 0.062500 0.500000
vt 0.280111 0.401379
vt 0.250000 0.404345
vt 0.219889 0.401379
vt 0.190935 0.392596
vt 0.164250 0.378333
vt 0.140862 0.359138
vt 0.121667 0.335750
vt 0.107404 0.309065
vt 0.098621 0.280111
vt 0.095655 0.250000
vt 0.098621 0.219889
vt 0.107404 0.190935
vt 0.121667 0.164250
vt 0.140862 0.140862
vt 0.164250 0.121667
vt 0.190935 0.107404
vt 0.219889 0.098621
vt 0.250000 0.095655
vt 0.280111 0.098621
vt 0.309065 0.107404
vt 0.335750 0.121667
vt 0.359138 0.140862
vt 0.378333 0.164250
vt 0.392596 0.190935
vt 0.401379 0.219889
vt 0.404345 0.250000
vt 0.401379 0.280111
vt 0.392596 0.309065
vt 0.378333 0.335750
vt 0.359138 0.359138
vt 0.335750 0.378333
vt 0.309065 0.392596
vt 0.031250 1.000000
vt 0.031250 0.500000
vt 0.000000 1.000000
vt 0.000000 0.500000
vt 0.750000 0.490000
vt 0.796822 0.485388
vt 0.841844 0.471731
vt 0.883337 0.449553
vt 0.919706 0.419706
vt 0.949553 0.383337
vt 0.971731 0.341844
vt 0.985388 0.296822
vt 0.990000 0.250000
vt 0.985388 0.203178
vt 0.971731 0.158156
vt 0.949553 0.116663
vt 0.919706 0.080294
vt 0.883337 0.050447
vt 0.841844 0.028269
vt 0.796822 0.014612
vt 0.750000 0.010000
vt 0.703178 0.014612
vt 0.658156 0.028269
vt 0.616663 0.050447
vt 0.580294 0.080294
vt 0.550447 0.116663
vt 0.528269 0.158156
vt 0.514612 0.203178
vt 0.510000 0.250000
vt 0.514612 0.296822
vt 0.528269 0.341844
vt 0.550447 0.383337
vt 0.580294 0.419706
vt 0.616663 0.449553
vt 0.658156 0.471731
vt 0.703178 0.485388
vt 0.296822 0.485388
vt 0.250000 0.490000
vt 0.341844 0.471731
vt 0.383337 0.449553
vt 0.419706 0.419706
vt 0.449553 0.383337
vt 0.471731 0.341844
vt 0.485388 0.296822
vt 0.490000 0.250000
vt 0.485388 0.203178
vt 0.471731 0.158156
vt 0.449553 0.116663
vt 0.419706 0.080294
vt 0.383337 0.050447
vt 0.341844 0.028269
vt 0.296822 0.014612
vt 0.250000 0.010000
vt 0.203178 0.014612
vt 0.158156 0.028269
vt 0.116663 0.050447
vt 0.080294 0.080294
vt 0.050447 0.116663
vt 0.028269 0.158156
vt 0.014612 0.203178
vt 0.010000 0.250000
vt 0.014612 0.296822
vt 0.028269 0.341844
vt 0.050447 0.383337
vt 0.080294 0.419706
vt 0.116663 0.449553
vt 0.158156 0.471731
vt 0.203178 0.485388
s 0
usemtl Material.001
f 1/1/1 66/2/1 65/3/1 3/4/1
f 3/4/2 65/3/2 67/5/2 5/6/2
f 5/6/3 67/5/3 68/7/3 7/8/3
f 7/8/4 68/7/4 69/9/4 9/10/4
f 9/10/5 69/9/5 70/11/5 11/12/5
f 11/12/6 70/11/6 71/13/6 13/14/6
f 13/14/7 71/13/7 72/15/7 15/16/7
f 15/16/8 72/15/8 73/17/8 17/18/8
f 17/18/9 73/17/9 74/19/9 19/20/9
f 19/20/10 74/19/10 75/21/10 21/22/10
f 21/22/11 75/21/11 76/23/11 23/24/11
f 23/24/12 76/23/12 77/25/12 25/26/12
f 25/26/13 77/25/13 78/27/13 27/28/13
f 27/28/14 78/27/14 79/29/14 29/30/14
f 29/30/15 79/29/15 80/31/15 31/32/15
f 31/32/16 80/31/16 81/33/16 33/34/16
f 33/34/17 81/33/17 82/35/17 35/36/17
f 35/36/18 82/35/18 83/37/18 37/38/18
f 37/38/19 83/37/19 84/39/19 39/40/19
f 39/40/20 84/39/20 85/41/20 41/42/20
f 41/42/21 85/41/21 86/43/21 43/44/21
f 43/44/22 86/43/22 87/45/22 45/46/22
f 45/46/23 87/45/23 88/47/23 47/48/23
f 47/48/24 88/47/24 89/49/24 49/50/24
f 49/50/25 89/49/25 90/51/25 51/52/25
f 51/52/26 90/51/26 91/53/26 53/54/26
f 53/54/27 91/53/27 92/55/27 55/56/27
f 55/56/28 92/55/28 93/57/28 57/58/28
f 57/58/29 93/57/29 94/59/29 59/60/29
f 59/60/30 94/59/30 95/61/30 61/62/30
f 4/63/31 2/64/31 64/65/31 62/66/31 60/67/31 58/68/31 56/69/31 54/70/31 52/71/31 50/72/31 48/73/31 46/74/31 44/75/31 42/76/31 40/77/31 38/78/31 36/79/31 34/80/31 32/81/31 30/82/31 28/83/31 26/84/31 24/85/31 22/86/31 20/87/31 18/88/31 16/89/31 14/90/31 12/91/31 10/92/31 8/93/31 6/94/31
f 61/62/32 95/61/32 96/95/32 63/96/32
f 63/96/33 96/95/33 66/97/33 1/98/33
f 1/99/34 3/100/34 5/101/34 7/102/34 9/103/34 11/104/34 13/105/34 15/106/34 17/107/34 19/108/34 21/109/34 23/110/34 25/111/34 27/112/34 29/113/34 31/114/34 33/115/34 35/116/34 37/117/34 39/118/34 41/119/34 43/120/34 45/121/34 47/122/34 49/123/34 51/124/34 53/125/34 55/126/34 57/127/34 59/128/34 61/129/34 63/130/34
f 2/64/35 4/63/35 65/131/35 66/132/35
f 4/63/36 6/94/36 67/133/36 65/131/36
f 6/94/37 8/93/37 68/134/37 67/133/37
f 8/93/38 10/92/38 69/135/38 68/134/38
f 10/92/39 12/91/39 70/136/39 69/135/39
f 12/91/40 14/90/40 71/137/40 70/136/40
f 14/90/41 16/89/41 72/138/41 71/137/41
f 16/89/42 18/88/42 73/139/42 72/138/42
f 18/88/43 20/87/43 74/140/43 73/139/43
f 20/87/44 22/86/44 75/141/44 74/140/44
f 22/86/45 24/85/45 76/142/45 75/141/45
f 24/85/46 26/84/46 77/143/46 76/142/46
f 26/84/47 28/83/47 78/144/47 77/143/47
f 28/83/48 30/82/48 79/145/48 78/144/48
f 30/82/49 32/81/49 80/146/49 79/145/49
f 32/81/50 34/80/50 81/147/50 80/146/50
f 34/80/51 36/79/51 82/148/51 81/147/51
f 36/79/52 38/78/52 83/149/52 82/148/52
f 38/78/53 40/77/53 84/150/53 83/149/53
f 40/77/54 42/76/54 85/151/54 84/150/54
f 42/76/55 44/75/55 86/152/55 85/151/55
f 44/75/56 46/74/56 87/153/56 86/152/56
f 46/74/57 48/73/57 88/154/57 87/153/57
f 48/73/58 50/72/58 89/155/58 88/154/58
f 50/72/59 52/71/59 90/156/59 89/155/59
f 52/71/60 54/70/60 91/157/60 90/156/60
f 54/70/61 56/69/61 92/158/61 91/157/61
f 56/69/62 58/68/62 93/159/62 92/158/62
f 58/68/63 60/67/63 94/160/63 93/159/63
f 60/67/64 62/66/64 95/161/64 94/160/64
f 62/66/65 64/65/65 96/162/65 95/161/65
f 64/65/66 2/64/66 66/132/66 96/162/66
