# Blender 4.0.2
# www.blender.org
mtllib emergency_lamp.mtl
o Cylinder
v 0.000000 -0.010000 -0.140000
v 0.000000 0.010000 -0.140000
v 0.039018 -0.010000 -0.137310
v 0.039018 0.010000 -0.137310
v 0.076537 -0.010000 -0.129343
v 0.076537 0.010000 -0.129343
v 0.111114 -0.010000 -0.116406
v 0.111114 0.010000 -0.116406
v 0.141421 -0.010000 -0.098995
v 0.141421 0.010000 -0.098995
v 0.166294 -0.010000 -0.077780
v 0.166294 0.010000 -0.077780
v 0.184776 -0.010000 -0.053576
v 0.184776 0.010000 -0.053576
v 0.196157 -0.010000 -0.027313
v 0.196157 0.010000 -0.027313
v 0.200000 -0.010000 0.000000
v 0.200000 0.010000 0.000000
v 0.196157 -0.010000 0.027313
v 0.196157 0.010000 0.027313
v 0.184776 -0.010000 0.053576
v 0.184776 0.010000 0.053576
v 0.166294 -0.010000 0.077780
v 0.166294 0.010000 0.077780
v 0.141421 -0.010000 0.098995
v 0.141421 0.010000 0.098995
v 0.111114 -0.010000 0.116406
v 0.111114 0.010000 0.116406
v 0.076537 -0.010000 0.129343
v 0.076537 0.010000 0.129343
v 0.039018 -0.010000 0.137310
v 0.039018 0.010000 0.137310
v 0.000000 -0.010000 0.140000
v 0.000000 0.010000 0.140000
v -0.039018 -0.010000 0.137310
v -0.039018 0.010000 0.137310
v -0.076537 -0.010000 0.129343
v -0.076537 0.010000 0.129343
v -0.111114 -0.010000 0.116406
v -0.111114 0.010000 0.116406
v -0.141421 -0.010000 0.098995
v -0.141421 0.010000 0.098995
v -0.166294 -0.010000 0.077780
v -0.166294 0.010000 0.077780
v -0.184776 -0.010000 0.053576
v -0.184776 0.010000 0.053576
v -0.196157 -0.010000 0.027313
v -0.196157 0.010000 0.027313
v -0.200000 -0.010000 0.000000
v -0.200000 0.010000 0.000000
v -0.196157 -0.010000 -0.027313
v -0.196157 0.010000 -0.027313
v -0.184776 -0.010000 -0.053576
v -0.184776 0.010000 -0.053576
v -0.166294 -0.010000 -0.077780
v -0.166294 0.010000 -0.077780
v -0.141421 -0.010000 -0.098995
v -0.141421 0.010000 -0.098995
v -0.111114 -0.010000 -0.116406
v -0.111114 0.010000 -0.116406
v -0.076537 -0.010000 -0.129343
v -0.076537 0.010000 -0.129343
v -0.039018 -0.010000 -0.137310
v -0.039018 0.010000 -0.137310
vn 0.0688 -0.0000 -0.9976
vn 0.2077 -0.0000 -0.9782
vn 0.3504 -0.0000 -0.9366
vn 0.4981 -0.0000 -0.8671
vn 0.6490 -0.0000 -0.7608
vn 0.7948 -0.0000 -0.6069
vn 0.9175 -0.0000 -0.3976
vn 0.9902 -0.0000 -0.1393
vn 0.9902 -0.0000 0.1393
vn 0.9175 -0.0000 0.3976
vn 0.7948 -0.0000 0.6069
vn 0.6490 -0.0000 0.7608
vn 0.4981 -0.0000 0.8671
vn 0.3504 -0.0000 0.9366
vn 0.2077 -0.0000 0.9782
vn 0.0688 -0.0000 0.9976
vn -0.0688 -0.0000 0.9976
vn -0.2077 -0.0000 0.9782
vn -0.3504 -0.0000 0.9366
vn -0.4981 -0.0000 0.8671
vn -0.6490 -0.0000 0.7608
vn -0.7948 -0.0000 0.6069
vn -0.9175 -0.0000 0.3976
vn -0.9902 -0.0000 0.1393
vn -0.9902 -0.0000 -0.1393
vn -0.9175 -0.0000 -0.3976
vn -0.7948 -0.0000 -0.6069
vn -0.6490 -0.0000 -0.7608
vn -0.4981 -0.0000 -0.8671
vn -0.3504 -0.0000 -0.9366
vn -0.0000 1.0000 -0.0000
vn -0.2077 -0.0000 -0.9782
vn -0.0688 -0.0000 -0.9976
vn -0.0000 -1.0000 -0.0000
vt 1.000000 0.500000
vt 1.000000 1.000000
vt 0.968750 1.000000
vt 0.968750 0.500000
vt 0.937500 1.000000
vt 0.937500 0.500000
vt 0.906250 1.000000
vt 0.906250 0.500000
vt 0.875000 1.000000
vt 0.875000 0.500000
vt 0.843750 1.000000
vt 0.843750 0.500000
vt 0.812500 1.000000
vt 0.812500 0.500000
vt 0.781250 1.000000
vt 0.781250 0.500000
vt 0.750000 1.000000
vt 0.750000 0.500000
vt 0.718750 1.000000
vt 0.718750 0.500000
vt 0.687500 1.000000
vt 0.687500 0.500000
vt 0.656250 1.000000
vt 0.656250 0.500000
vt 0.625000 1.000000
vt 0.625000 0.500000
vt 0.593750 1.000000
vt 0.593750 0.500000
vt 0.562500 1.000000
vt 0.562500 0.500000
vt 0.531250 1.000000
vt 0.531250 0.500000
vt 0.500000 1.000000
vt 0.500000 0.500000
vt 0.468750 1.000000
vt 0.468750 0.500000
vt 0.437500 1.000000
vt 0.437500 0.500000
vt 0.406250 1.000000
vt 0.406250 0.500000
vt 0.375000 1.000000
vt 0.375000 0.500000
vt 0.343750 1.000000
vt 0.343750 0.500000
vt 0.312500 1.000000
vt 0.312500 0.500000
vt 0.281250 1.000000
vt 0.281250 0.500000
vt 0.250000 1.000000
vt 0.250000 0.500000
vt 0.218750 1.000000
vt 0.218750 0.500000
vt 0.187500 1.000000
vt 0.187500 0.500000
vt 0.156250 1.000000
vt 0.156250 0.500000
vt 0.125000 1.000000
vt 0.125000 0.500000
vt 0.093750 1.000000
vt 0.093750 0.500000
vt 0.062500 1.000000
vt 0.062500 0.500000
vt 0.296822 0.485388
vt 0.250000 0.490000
vt 0.203178 0.485388
vt 0.158156 0.471731
vt 0.116663 0.449553
vt 0.080294 0.419706
vt 0.050447 0.383337
vt 0.028269 0.341844
vt 0.014612 0.296822
vt 0.010000 0.250000
vt 0.014612 0.203178
vt 0.028269 0.158156
vt 0.050447 0.116663
vt 0.080294 0.080294
vt 0.116663 0.050447
vt 0.158156 0.028269
vt 0.203178 0.014612
vt 0.250000 0.010000
vt 0.296822 0.014612
vt 0.341844 0.028269
vt 0.383337 0.050447
vt 0.419706 0.080294
vt 0.449553 0.116663
vt 0.471731 0.158156
vt 0.485388 0.203178
vt 0.490000 0.250000
vt 0.485388 0.296822
vt 0.471731 0.341844
vt 0.449553 0.383337
vt 0.419706 0.419706
vt 0.383337 0.449553
vt 0.341844 0.471731
vt 0.031250 1.000000
vt 0.031250 0.500000
vt 0.000000 1.000000
vt 0.000000 0.500000
vt 0.750000 0.490000
vt 0.796822 0.485388
vt 0.841844 0.471731
vt 0.883337 0.449553
vt 0.919706 0.419706
vt 0.949553 0.383337
vt 0.971731 0.341844
vt 0.985388 0.296822
vt 0.990000 0.250000
vt 0.985388 0.203178
vt 0.971731 0.158156
vt 0.949553 0.116663
vt 0.919706 0.080294
vt 0.883337 0.050447
vt 0.841844 0.028269
vt 0.796822 0.014612
vt 0.750000 0.010000
vt 0.703178 0.014612
vt 0.658156 0.028269
vt 0.616663 0.050447
vt 0.580294 0.080294
vt 0.550447 0.116663
vt 0.528269 0.158156
vt 0.514612 0.203178
vt 0.510000 0.250000
vt 0.514612 0.296822
vt 0.528269 0.341844
vt 0.550447 0.383337
vt 0.580294 0.419706
vt 0.616663 0.449553
vt 0.658156 0.471731
vt 0.703178 0.485388
s 0
usemtl Material.002
f 1/1/1 2/2/1 4/3/1 3/4/1
f 3/4/2 4/3/2 6/5/2 5/6/2
f 5/6/3 6/5/3 8/7/3 7/8/3
f 7/8/4 8/7/4 10/9/4 9/10/4
f 9/10/5 10/9/5 12/11/5 11/12/5
f 11/12/6 12/11/6 14/13/6 13/14/6
f 13/14/7 14/13/7 16/15/7 15/16/7
f 15/16/8 16/15/8 18/17/8 17/18/8
f 17/18/9 18/17/9 20/19/9 19/20/9
f 19/20/10 20/19/10 22/21/10 21/22/10
f 21/22/11 22/21/11 24/23/11 23/24/11
f 23/24/12 24/23/12 26/25/12 25/26/12
f 25/26/13 26/25/13 28/27/13 27/28/13
f 27/28/14 28/27/14 30/29/14 29/30/14
f 29/30/15 30/29/15 32/31/15 31/32/15
f 31/32/16 32/31/16 34/33/16 33/34/16
f 33/34/17 34/33/17 36/35/17 35/36/17
f 35/36/18 36/35/18 38/37/18 37/38/18
f 37/38/19 38/37/19 40/39/19 39/40/19
f 39/40/20 40/39/20 42/41/20 41/42/20
f 41/42/21 42/41/21 44/43/21 43/44/21
f 43/44/22 44/43/22 46/45/22 45/46/22
f 45/46/23 46/45/23 48/47/23 47/48/23
f 47/48/24 48/47/24 50/49/24 49/50/24
f 49/50/25 50/49/25 52/51/25 51/52/25
f 51/52/26 52/51/26 54/53/26 53/54/26
f 53/54/27 54/53/27 56/55/27 55/56/27
f 55/56/28 56/55/28 58/57/28 57/58/28
f 57/58/29 58/57/29 60/59/29 59/60/29
f 59/60/30 60/59/30 62/61/30 61/62/30
f 4/63/31 2/64/31 64/65/31 62/66/31 60/67/31 58/68/31 56/69/31 54/70/31 52/71/31 50/72/31 48/73/31 46/74/31 44/75/31 42/76/31 40/77/31 38/78/31 36/79/31 34/80/31 32/81/31 30/82/31 28/83/31 26/84/31 24/85/31 22/86/31 20/87/31 18/88/31 16/89/31 14/90/31 12/91/31 10/92/31 8/93/31 6/94/31
f 61/62/32 62/61/32 64/95/32 63/96/32
f 63/96/33 64/95/33 2/97/33 1/98/33
f 1/99/34 3/100/34 5/101/34 7/102/34 9/103/34 11/104/34 13/105/34 15/106/34 17/107/34 19/108/34 21/109/34 23/110/34 25/111/34 27/112/34 29/113/34 31/114/34 33/115/34 35/116/34 37/117/34 39/118/34 41/119/34 43/120/34 45/121/34 47/122/34 49/123/34 51/124/34 53/125/34 55/126/34 57/127/34 59/128/34 61/129/34 63/130/34
o Icosphere
v 0.041458 0.067083 0.089318
v -0.108541 0.067083 0.055201
v -0.108541 0.067083 -0.055201
v 0.041458 0.067083 -0.089318
v 0.134164 0.067082 0.000000
v 0.000000 0.150000 0.000000
v 0.143494 0.037672 0.015500
v 0.142659 0.000000 0.032446
v 0.142659 0.000000 -0.032446
v 0.143494 0.037672 -0.015500
v 0.023282 0.037673 0.100319
v 0.000000 0.000000 0.105000
v 0.088168 0.000000 0.084947
v 0.065401 0.037673 0.090740
v -0.129105 0.037673 0.046500
v -0.142659 0.000000 0.032446
v -0.088168 0.000000 0.084947
v -0.103074 0.037673 0.071580
v -0.103074 0.037673 -0.071580
v -0.088168 0.000000 -0.084947
v -0.142659 0.000000 -0.032446
v -0.129105 0.037673 -0.046500
v 0.065401 0.037673 -0.090740
v 0.088168 0.000000 -0.084947
v 0.000000 0.000000 -0.105000
v 0.023282 0.037673 -0.100319
v 0.124658 0.075345 0.025080
v 0.103228 0.078860 0.052500
v 0.072596 0.075345 0.075239
v 0.004446 0.075345 0.090739
v -0.039430 0.078861 0.084946
v -0.079791 0.075345 0.071580
v -0.121909 0.075345 0.031000
v -0.127597 0.078860 -0.000000
v -0.121909 0.075345 -0.031000
v -0.079791 0.075345 -0.071580
v -0.039430 0.078861 -0.084946
v 0.004446 0.075345 -0.090739
v 0.072596 0.075345 -0.075239
v 0.103228 0.078860 -0.052500
v 0.124658 0.075345 -0.025080
v 0.011641 0.145192 0.025080
v 0.024368 0.127598 0.052500
v 0.034923 0.098628 0.075239
v 0.113016 0.098627 0.000000
v 0.078859 0.127598 0.000000
v 0.037672 0.145192 0.000000
v -0.030477 0.145192 0.015500
v -0.063798 0.127598 0.032446
v -0.091432 0.098628 0.046500
v -0.030477 0.145192 -0.015500
v -0.063798 0.127598 -0.032446
v -0.091432 0.098628 -0.046500
v 0.011641 0.145192 -0.025080
v 0.024368 0.127598 -0.052500
v 0.034923 0.098628 -0.075239
v 0.054270 0.134164 -0.027601
v 0.095729 0.108541 -0.027601
v 0.067081 0.108542 -0.055201
v -0.020730 0.134164 -0.044659
v -0.007918 0.108542 -0.072259
v -0.054271 0.108542 -0.061717
v -0.067081 0.134164 0.000000
v -0.100623 0.108542 -0.017058
v -0.100623 0.108542 0.017058
v -0.020730 0.134164 0.044659
v -0.054271 0.108542 0.061717
v -0.007918 0.108542 0.072259
v 0.054270 0.134164 0.027601
v 0.067081 0.108542 0.055201
v 0.095729 0.108541 0.027601
v 0.129271 0.041459 -0.044659
v 0.121353 0.000000 -0.061717
v 0.100623 0.041460 -0.072260
v -0.020730 0.041460 -0.099861
v -0.046352 -0.000000 -0.099861
v -0.067082 0.041460 -0.089318
v -0.142082 0.041459 -0.017058
v -0.150000 0.000000 0.000000
v -0.142082 0.041459 0.017058
v -0.067082 0.041460 0.089318
v -0.046353 -0.000000 0.099861
v -0.020730 0.041460 0.099861
v 0.100623 0.041459 0.072260
v 0.121353 -0.000000 0.061717
v 0.129271 0.041459 0.044659
v 0.046353 0.000000 -0.099861
v -0.121353 0.000000 -0.061717
v -0.121353 0.000000 0.061717
v 0.046353 0.000000 0.099861
v 0.150000 0.000000 0.000000
vn 0.2710 0.4386 0.8568
vn -0.5342 0.4814 0.6949
vn -0.6665 0.5112 -0.5427
vn 0.1296 0.4264 -0.8952
vn 0.8235 0.5521 -0.1303
vn 0.1255 0.9835 -0.1303
vn 0.3895 0.9118 -0.1301
vn 0.6413 0.7562 -0.1301
vn 0.2300 0.9435 -0.2387
vn 0.1961 0.8641 -0.4634
vn 0.5081 0.8221 -0.2571
vn 0.4615 0.7467 -0.4790
vn 0.3051 0.7644 -0.5680
vn 0.2457 0.6523 -0.7170
vn 0.7410 0.6276 -0.2387
vn 0.6852 0.5619 -0.4634
vn 0.5472 0.6147 -0.5680
vn 0.4736 0.5115 -0.7170
vn 0.3261 0.5276 -0.7844
vn 0.2710 0.4386 -0.8568
vn -0.0476 0.9767 -0.2093
vn 0.0314 0.8478 -0.5294
vn 0.0938 0.6356 -0.7663
vn -0.0858 0.9221 -0.3774
vn -0.2509 0.8747 -0.4147
vn -0.0125 0.7299 -0.6834
vn -0.1616 0.6847 -0.7107
vn -0.2820 0.7595 -0.5862
vn -0.4243 0.6895 -0.5870
vn 0.0560 0.5015 -0.8634
vn -0.0796 0.4621 -0.8833
vn -0.1858 0.5463 -0.8167
vn -0.3129 0.4834 -0.8176
vn -0.4380 0.5484 -0.7124
vn -0.5342 0.4814 -0.6949
vn -0.1558 0.9878 -0.0000
vn -0.3656 0.9044 -0.2200
vn -0.5490 0.7252 -0.4156
vn -0.2885 0.9575 -0.0000
vn -0.3656 0.9044 0.2200
vn -0.5192 0.8259 -0.2197
vn -0.6071 0.7947 -0.0000
vn -0.5192 0.8259 0.2197
vn -0.5490 0.7252 0.4156
vn -0.6761 0.6082 -0.4159
vn -0.7806 0.5887 -0.2100
vn -0.7400 0.6726 -0.0000
vn -0.7806 0.5887 0.2100
vn -0.6761 0.6082 0.4159
vn -0.6665 0.5112 0.5427
vn -0.0476 0.9767 0.2093
vn -0.2509 0.8747 0.4147
vn -0.4243 0.6895 0.5870
vn -0.0858 0.9221 0.3774
vn 0.0314 0.8478 0.5294
vn -0.2820 0.7595 0.5862
vn -0.1616 0.6847 0.7107
vn -0.0125 0.7299 0.6834
vn 0.0938 0.6356 0.7663
vn -0.4380 0.5484 0.7124
vn -0.3129 0.4834 0.8176
vn -0.1858 0.5463 0.8167
vn -0.0796 0.4621 0.8833
vn 0.0560 0.5015 0.8634
vn 0.1296 0.4264 0.8952
vn 0.1255 0.9835 0.1303
vn 0.1961 0.8641 0.4634
vn 0.2457 0.6523 0.7170
vn 0.2300 0.9435 0.2387
vn 0.3895 0.9118 0.1301
vn 0.3051 0.7644 0.5680
vn 0.4615 0.7467 0.4790
vn 0.5081 0.8221 0.2571
vn 0.6413 0.7562 0.1301
vn 0.3261 0.5276 0.7844
vn 0.4736 0.5115 0.7170
vn 0.5472 0.6147 0.5680
vn 0.6852 0.5619 0.4634
vn 0.7410 0.6276 0.2387
vn 0.8235 0.5521 0.1303
vn 0.8949 0.3942 -0.2093
vn 0.8946 0.1667 -0.4147
vn 0.8631 0.3356 -0.3774
vn 0.7442 0.4072 -0.5294
vn 0.8054 0.0874 -0.5862
vn 0.6847 0.1616 -0.7107
vn 0.6585 0.3152 -0.6834
vn 0.5266 0.3682 -0.7663
vn 0.5717 0.0782 -0.8167
vn 0.4489 0.1354 -0.8833
vn 0.4235 0.2744 -0.8634
vn 0.3234 0.3066 -0.8952
vn 0.1018 0.2927 -0.9508
vn 0.0003 0.1231 -0.9924
vn 0.0116 0.2519 -0.9677
vn -0.0980 0.3259 -0.9403
vn -0.1099 0.0679 -0.9916
vn -0.2197 0.1358 -0.9661
vn -0.2137 0.2678 -0.9395
vn -0.3222 0.3414 -0.8830
vn -0.3351 0.0714 -0.9395
vn -0.4494 0.1355 -0.8830
vn -0.4481 0.2769 -0.8500
vn -0.5372 0.3320 -0.7754
vn -0.7553 0.3675 -0.5427
vn -0.8942 0.1667 -0.4156
vn -0.8464 0.3328 -0.4159
vn -0.8757 0.4349 -0.2100
vn -0.9709 0.0950 -0.2197
vn -0.9822 0.1876 -0.0000
vn -0.9325 0.3611 -0.0000
vn -0.8757 0.4349 0.2100
vn -0.9709 0.0950 0.2197
vn -0.8942 0.1667 0.4156
vn -0.8464 0.3328 0.4159
vn -0.7553 0.3675 0.5427
vn -0.5372 0.3320 0.7754
vn -0.4494 0.1355 0.8830
vn -0.4481 0.2769 0.8500
vn -0.3222 0.3414 0.8830
vn -0.3351 0.0714 0.9395
vn -0.2197 0.1358 0.9661
vn -0.2137 0.2678 0.9395
vn -0.0980 0.3259 0.9403
vn -0.1099 0.0679 0.9916
vn 0.0003 0.1231 0.9924
vn 0.0116 0.2519 0.9677
vn 0.1018 0.2927 0.9508
vn 0.3234 0.3066 0.8952
vn 0.4489 0.1354 0.8833
vn 0.4235 0.2744 0.8634
vn 0.5266 0.3682 0.7663
vn 0.5717 0.0782 0.8167
vn 0.6847 0.1616 0.7107
vn 0.6585 0.3152 0.6834
vn 0.7442 0.4072 0.5294
vn 0.8054 0.0874 0.5862
vn 0.8946 0.1667 0.4147
vn 0.8631 0.3356 0.3774
vn 0.8949 0.3942 0.2093
vn 0.2162 0.2220 -0.9508
vn 0.3354 0.0581 -0.9403
vn 0.2201 0.1230 -0.9677
vn 0.1100 0.0553 -0.9924
vn -0.6695 0.2625 -0.6949
vn -0.5723 0.0636 -0.8176
vn -0.6863 0.1465 -0.7124
vn -0.8065 0.0712 -0.5870
vn -0.6695 0.2625 0.6949
vn -0.8065 0.0712 0.5870
vn -0.6863 0.1465 0.7124
vn -0.5723 0.0636 0.8176
vn 0.2162 0.2220 0.9508
vn 0.1100 0.0553 0.9924
vn 0.2201 0.1230 0.9677
vn 0.3354 0.0581 0.9403
vn 0.9532 0.3024 -0.0000
vn 0.9724 0.0774 0.2200
vn 0.9854 0.1702 -0.0000
vn 0.9724 0.0774 -0.2200
vn -0.0000 -1.0000 -0.0000
vt 0.181819 0.314921
vt 0.227273 0.314921
vt 0.204546 0.354286
vt 0.000000 0.314921
vt 0.045455 0.314921
vt 0.022727 0.354286
vt 0.727273 0.314921
vt 0.772727 0.314921
vt 0.750000 0.354286
vt 0.545455 0.314921
vt 0.590909 0.314921
vt 0.568182 0.354286
vt 0.363637 0.314921
vt 0.409091 0.314921
vt 0.386364 0.354286
vt 0.431819 0.433017
vt 0.477273 0.433017
vt 0.454546 0.472382
vt 0.409091 0.393651
vt 0.454546 0.393651
vt 0.431819 0.354286
vt 0.500000 0.393651
vt 0.477273 0.354286
vt 0.522728 0.354286
vt 0.454546 0.314921
vt 0.500000 0.314921
vt 0.613637 0.433017
vt 0.659091 0.433017
vt 0.636364 0.472382
vt 0.590909 0.393651
vt 0.636364 0.393651
vt 0.613637 0.354286
vt 0.681818 0.393651
vt 0.659091 0.354286
vt 0.704546 0.354286
vt 0.636364 0.314921
vt 0.681818 0.314921
vt 0.795455 0.433017
vt 0.840909 0.433017
vt 0.818182 0.472382
vt 0.772727 0.393651
vt 0.818182 0.393651
vt 0.795455 0.354286
vt 0.863636 0.393651
vt 0.840909 0.354286
vt 0.886364 0.354286
vt 0.818182 0.314921
vt 0.863636 0.314921
vt 0.909091 0.314921
vt 0.068182 0.433017
vt 0.113637 0.433017
vt 0.090910 0.472382
vt 0.045455 0.393651
vt 0.090910 0.393651
vt 0.068182 0.354286
vt 0.136365 0.393651
vt 0.113637 0.354286
vt 0.159092 0.354286
vt 0.090909 0.314921
vt 0.136364 0.314921
vt 0.250001 0.433017
vt 0.295455 0.433017
vt 0.272728 0.472382
vt 0.227273 0.393651
vt 0.272728 0.393651
vt 0.250001 0.354286
vt 0.318182 0.393651
vt 0.295455 0.354286
vt 0.340910 0.354286
vt 0.272728 0.314921
vt 0.318182 0.314921
vt 0.386364 0.275556
vt 0.409091 0.236191
vt 0.431819 0.275556
vt 0.454546 0.236191
vt 0.477273 0.275556
vt 0.500000 0.236191
vt 0.522728 0.275556
vt 0.568182 0.275556
vt 0.590909 0.236191
vt 0.613637 0.275556
vt 0.636364 0.236191
vt 0.659091 0.275556
vt 0.681818 0.236191
vt 0.704546 0.275556
vt 0.750000 0.275556
vt 0.772727 0.236191
vt 0.795455 0.275556
vt 0.818182 0.236191
vt 0.840909 0.275556
vt 0.863636 0.236191
vt 0.886364 0.275556
vt 0.022727 0.275556
vt 0.045455 0.236191
vt 0.068182 0.275556
vt 0.090910 0.236191
vt 0.113637 0.275556
vt 0.136364 0.236191
vt 0.159092 0.275556
vt 0.204546 0.275556
vt 0.227273 0.236191
vt 0.250001 0.275556
vt 0.272728 0.236191
vt 0.295455 0.275556
vt 0.318182 0.236191
vt 0.340910 0.275556
vt 0.545455 0.236191
vt 0.727273 0.236191
vt 0.931818 0.275556
vt 0.909091 0.236191
vt 0.954545 0.236191
vt 0.181819 0.236191
vt 0.363637 0.236191
s 0
usemtl Material.001
f 65/131/35 93/132/35 108/133/35
f 66/134/36 96/135/36 114/136/36
f 67/137/37 99/138/37 117/139/37
f 68/140/38 102/141/38 120/142/38
f 69/143/39 105/144/39 109/145/39
f 111/146/40 118/147/40 70/148/40
f 110/149/41 121/150/41 111/146/41
f 109/145/42 122/151/42 110/149/42
f 111/146/43 121/150/43 118/147/43
f 121/150/44 119/152/44 118/147/44
f 110/149/45 122/151/45 121/150/45
f 122/151/46 123/153/46 121/150/46
f 121/150/47 123/153/47 119/152/47
f 123/153/48 120/154/48 119/152/48
f 109/145/49 105/144/49 122/151/49
f 105/144/50 104/155/50 122/151/50
f 122/151/51 104/155/51 123/153/51
f 104/155/52 103/156/52 123/153/52
f 123/153/53 103/156/53 120/154/53
f 103/156/54 68/140/54 120/154/54
f 118/157/55 115/158/55 70/159/55
f 119/160/56 124/161/56 118/157/56
f 120/142/57 125/162/57 119/160/57
f 118/157/58 124/161/58 115/158/58
f 124/161/59 116/163/59 115/158/59
f 119/160/60 125/162/60 124/161/60
f 125/162/61 126/164/61 124/161/61
f 124/161/62 126/164/62 116/163/62
f 126/164/63 117/165/63 116/163/63
f 120/142/64 102/141/64 125/162/64
f 102/141/65 101/166/65 125/162/65
f 125/162/66 101/166/66 126/164/66
f 101/166/67 100/167/67 126/164/67
f 126/164/68 100/167/68 117/165/68
f 100/167/69 67/137/69 117/165/69
f 115/168/70 112/169/70 70/170/70
f 116/171/71 127/172/71 115/168/71
f 117/139/72 128/173/72 116/171/72
f 115/168/73 127/172/73 112/169/73
f 127/172/74 113/174/74 112/169/74
f 116/171/75 128/173/75 127/172/75
f 128/173/76 129/175/76 127/172/76
f 127/172/77 129/175/77 113/174/77
f 129/175/78 114/176/78 113/174/78
f 117/139/79 99/138/79 128/173/79
f 99/138/80 98/177/80 128/173/80
f 128/173/81 98/177/81 129/175/81
f 98/177/82 97/178/82 129/175/82
f 129/175/83 97/178/83 114/176/83
f 97/178/84 66/179/84 114/176/84
f 112/180/85 106/181/85 70/182/85
f 113/183/86 130/184/86 112/180/86
f 114/136/87 131/185/87 113/183/87
f 112/180/88 130/184/88 106/181/88
f 130/184/89 107/186/89 106/181/89
f 113/183/90 131/185/90 130/184/90
f 131/185/91 132/187/91 130/184/91
f 130/184/92 132/187/92 107/186/92
f 132/187/93 108/188/93 107/186/93
f 114/136/94 96/135/94 131/185/94
f 96/135/95 95/189/95 131/185/95
f 131/185/96 95/189/96 132/187/96
f 95/189/97 94/190/97 132/187/97
f 132/187/98 94/190/98 108/188/98
f 94/190/99 65/131/99 108/188/99
f 106/191/100 111/192/100 70/193/100
f 107/194/101 133/195/101 106/191/101
f 108/133/102 134/196/102 107/194/102
f 106/191/103 133/195/103 111/192/103
f 133/195/104 110/197/104 111/192/104
f 107/194/105 134/196/105 133/195/105
f 134/196/106 135/198/106 133/195/106
f 133/195/107 135/198/107 110/197/107
f 135/198/108 109/199/108 110/197/108
f 108/133/109 93/132/109 134/196/109
f 93/132/110 92/200/110 134/196/110
f 134/196/111 92/200/111 135/198/111
f 92/200/112 91/201/112 135/198/112
f 135/198/113 91/201/113 109/199/113
f 91/201/114 69/143/114 109/199/114
f 74/202/115 105/144/115 69/143/115
f 73/203/116 136/204/116 74/202/116
f 74/202/117 136/204/117 105/144/117
f 136/204/118 104/155/118 105/144/118
f 73/203/119 137/205/119 136/204/119
f 137/205/120 138/206/120 136/204/120
f 136/204/121 138/206/121 104/155/121
f 138/206/122 103/156/122 104/155/122
f 137/205/123 88/207/123 138/206/123
f 88/207/124 87/208/124 138/206/124
f 138/206/125 87/208/125 103/156/125
f 87/208/126 68/140/126 103/156/126
f 90/209/127 102/141/127 68/140/127
f 89/210/128 139/211/128 90/209/128
f 90/209/129 139/211/129 102/141/129
f 139/211/130 101/166/130 102/141/130
f 89/210/131 140/212/131 139/211/131
f 140/212/132 141/213/132 139/211/132
f 139/211/133 141/213/133 101/166/133
f 141/213/134 100/167/134 101/166/134
f 140/212/135 84/214/135 141/213/135
f 84/214/136 83/215/136 141/213/136
f 141/213/137 83/215/137 100/167/137
f 83/215/138 67/137/138 100/167/138
f 86/216/139 99/138/139 67/137/139
f 85/217/140 142/218/140 86/216/140
f 86/216/141 142/218/141 99/138/141
f 142/218/142 98/177/142 99/138/142
f 85/217/143 143/219/143 142/218/143
f 143/219/144 144/220/144 142/218/144
f 142/218/145 144/220/145 98/177/145
f 144/220/146 97/178/146 98/177/146
f 143/219/147 80/221/147 144/220/147
f 80/221/148 79/222/148 144/220/148
f 144/220/149 79/222/149 97/178/149
f 79/222/150 66/179/150 97/178/150
f 82/223/151 96/135/151 66/134/151
f 81/224/152 145/225/152 82/223/152
f 82/223/153 145/225/153 96/135/153
f 145/225/154 95/189/154 96/135/154
f 81/224/155 146/226/155 145/225/155
f 146/226/156 147/227/156 145/225/156
f 145/225/157 147/227/157 95/189/157
f 147/227/158 94/190/158 95/189/158
f 146/226/159 76/228/159 147/227/159
f 76/228/160 75/229/160 147/227/160
f 147/227/161 75/229/161 94/190/161
f 75/229/162 65/131/162 94/190/162
f 78/230/163 93/132/163 65/131/163
f 77/231/164 148/232/164 78/230/164
f 78/230/165 148/232/165 93/132/165
f 148/232/166 92/200/166 93/132/166
f 77/231/167 149/233/167 148/232/167
f 149/233/168 150/234/168 148/232/168
f 148/232/169 150/234/169 92/200/169
f 150/234/170 91/201/170 92/200/170
f 149/233/171 72/235/171 150/234/171
f 72/235/172 71/236/172 150/234/172
f 150/234/173 71/236/173 91/201/173
f 71/236/174 69/143/174 91/201/174
f 87/208/175 90/209/175 68/140/175
f 88/207/176 151/237/176 87/208/176
f 87/208/177 151/237/177 90/209/177
f 151/237/178 89/210/178 90/209/178
f 83/215/179 86/216/179 67/137/179
f 84/214/180 152/238/180 83/215/180
f 83/215/181 152/238/181 86/216/181
f 152/238/182 85/217/182 86/216/182
f 79/222/183 82/239/183 66/179/183
f 80/221/184 153/240/184 79/222/184
f 79/222/185 153/240/185 82/239/185
f 153/240/186 81/241/186 82/239/186
f 75/229/187 78/230/187 65/131/187
f 76/228/188 154/242/188 75/229/188
f 75/229/189 154/242/189 78/230/189
f 154/242/190 77/231/190 78/230/190
f 71/236/191 74/202/191 69/143/191
f 72/235/192 155/243/192 71/236/192
f 71/236/193 155/243/193 74/202/193
f 155/243/194 73/203/194 74/202/194
f 73/203/195 155/243/195 72/235/195 149/233/195 77/231/195 154/242/195 76/228/195 146/226/195 81/224/195 153/240/195 80/221/195 143/219/195 85/217/195 152/238/195 84/214/195 140/212/195 89/210/195 151/237/195 88/207/195 137/205/195
