# Blender 4.0.2
# www.blender.org
mtllib gun.mtl
o Cube
v 1.000000 3.326308 -0.800000
v 1.000000 -1.000000 -1.000000
v 1.000000 3.326308 0.800000
v 1.000000 -1.000000 1.000000
v -1.827761 3.326308 -0.800000
v -1.000000 -1.000000 -1.000000
v -1.827761 3.326308 0.800000
v -1.000000 -1.000000 1.000000
v 1.000000 1.567788 -1.000000
v -1.000000 1.567788 1.000000
v 1.000000 1.567788 1.000000
v -1.000000 1.567788 -1.000000
v -6.055517 1.567788 1.000000
v -6.055517 3.326308 0.800000
v -6.055517 3.326308 -0.800000
v -6.055517 1.567788 -1.000000
v -1.000000 2.007418 1.000000
v -1.000000 2.447048 0.800000
v -1.000000 2.886678 0.800000
v 1.000000 2.886678 -0.800000
v 1.000000 2.447048 -0.800000
v 1.000000 2.007418 -1.000000
v 1.000000 2.886678 0.800000
v 1.000000 2.447048 0.800000
v 1.000000 2.007418 1.000000
v -1.000000 2.886678 -0.800000
v -1.000000 2.447048 -0.800000
v -1.000000 2.007418 -1.000000
v -6.055517 2.007418 1.000000
v -6.055517 2.447048 0.800000
v -6.055517 2.886678 0.800000
v -6.055517 2.886678 -0.800000
v -6.055517 2.447048 -0.800000
v -6.055517 2.007418 -1.000000
v -1.000000 -1.000000 -0.500000
v -1.000000 -1.000000 0.000000
v -1.000000 -1.000000 0.500000
v 1.331439 3.326308 -0.400000
v 1.331439 3.326308 0.000000
v 1.331439 3.326308 0.400000
v -1.827761 3.326308 0.400000
v -1.827761 3.326308 0.000000
v -1.827761 3.326308 -0.400000
v 1.331439 -1.000000 0.500000
v 1.331439 -1.000000 0.000000
v 1.331439 -1.000000 -0.500000
v 1.331439 1.567788 -0.500000
v 1.331439 1.567788 0.000000
v 1.331439 1.567788 0.500000
v -1.000000 1.567788 0.500000
v -1.000000 1.567788 0.000000
v -1.000000 1.567788 -0.500000
v -6.055517 3.326308 0.400000
v -6.055517 3.326308 0.000000
v -6.055517 3.326308 -0.400000
v -6.055517 1.567788 0.500000
v -6.055517 1.567788 0.000000
v -6.055517 1.567788 -0.500000
v -6.055517 2.007418 0.500000
v -6.055517 2.007418 0.000000
v -6.055517 2.007418 -0.500000
v -6.055517 2.447048 0.400000
v -6.055517 2.447048 -0.400000
v -6.055517 2.886678 0.400000
v -6.055517 2.886678 0.000000
v -6.055517 2.886678 -0.400000
v 1.331439 2.007418 -0.500000
v 1.331439 2.007418 0.000000
v 1.331439 2.007418 0.500000
v 1.331439 2.447048 -0.400000
v 1.331439 2.447048 0.000000
v 1.331439 2.447048 0.400000
v 1.331439 2.886678 -0.400000
v 1.331439 2.886678 0.000000
v 1.331439 2.886678 0.400000
v 1.000000 4.010792 -0.400000
v 1.000000 4.010792 0.000000
v 1.000000 4.010792 0.400000
v -1.000000 4.010792 0.400000
v -1.000000 4.010792 0.000000
v -1.000000 4.010792 -0.400000
v -6.477572 2.007418 0.500000
v -6.477572 2.007418 0.000000
v -6.477572 2.007418 -0.500000
v -6.477572 2.447048 0.400000
v -6.477572 2.447048 0.000000
v -6.477572 2.447048 -0.400000
v -6.477572 2.886678 0.400000
v -6.477572 2.886678 0.000000
v -6.477572 2.886678 -0.400000
vn -0.0000 1.0000 -0.0000
vn -0.0000 -0.0000 1.0000
vn -0.0000 -0.0000 -1.0000
vn -0.0000 -1.0000 -0.0000
vn 0.7700 -0.0000 0.6380
vn 0.8335 -0.0000 0.5525
vn -1.0000 -0.0000 -0.0000
vn -0.0000 0.4141 0.9102
vn -0.0000 0.4141 -0.9102
vn 0.7892 0.1983 0.5813
vn 0.7700 -0.0000 -0.6380
vn 1.0000 -0.0000 -0.0000
vn 0.7892 0.1983 -0.5813
vn 0.8335 -0.0000 -0.5525
vn 0.9000 0.4358 -0.0000
vn -0.6373 0.7707 -0.0000
vn -0.0000 0.2218 -0.9751
vn -0.0000 0.2218 0.9751
vt 0.625000 0.687500
vt 0.875000 0.687500
vt 0.875000 0.750000
vt 0.625000 0.750000
vt 0.599596 0.750000
vt 0.625000 1.000000
vt 0.599596 1.000000
vt 0.548787 0.250000
vt 0.523382 0.250000
vt 0.548787 0.250000
vt 0.125000 0.687500
vt 0.375000 0.687500
vt 0.375000 0.750000
vt 0.125000 0.750000
vt 0.599596 0.687500
vt 0.599596 0.250000
vt 0.625000 0.250000
vt 0.625000 0.500000
vt 0.599596 0.500000
vt 0.375000 0.250000
vt 0.523382 0.500000
vt 0.375000 0.500000
vt 0.523382 0.687500
vt 0.523382 0.750000
vt 0.375000 0.187500
vt 0.523382 0.187500
vt 0.523382 1.000000
vt 0.375000 1.000000
vt 0.599596 0.187500
vt 0.625000 0.187500
vt 0.875000 0.562500
vt 0.875000 0.500000
vt 0.523382 0.062500
vt 0.523382 0.000000
vt 0.523382 0.062500
vt 0.548787 1.000000
vt 0.548787 1.000000
vt 0.574191 1.000000
vt 0.523382 0.187500
vt 0.548787 0.187500
vt 0.574191 0.187500
vt 0.574191 0.250000
vt 0.548787 0.500000
vt 0.574191 0.500000
vt 0.548787 0.687500
vt 0.548787 0.750000
vt 0.574191 0.687500
vt 0.574191 0.750000
vt 0.599596 0.562500
vt 0.574191 0.562500
vt 0.599596 0.625000
vt 0.574191 0.625000
vt 0.548787 0.562500
vt 0.548787 0.625000
vt 0.523382 0.562500
vt 0.523382 0.625000
vt 0.574191 0.000000
vt 0.599596 0.000000
vt 0.599596 0.062500
vt 0.574191 0.062500
vt 0.548787 0.125000
vt 0.548787 0.062500
vt 0.548787 0.000000
vt 0.599596 0.125000
vt 0.523382 0.125000
vt 0.875000 0.625000
vt 0.625000 0.000000
vt 0.625000 0.062500
vt 0.625000 0.125000
vt 0.375000 0.000000
vt 0.375000 0.062500
vt 0.375000 0.125000
vt 0.375000 0.562500
vt 0.375000 0.625000
vt 0.625000 0.562500
vt 0.625000 0.625000
vt 0.125000 0.500000
vt 0.125000 0.562500
vt 0.125000 0.625000
vt 0.574191 0.125000
s 0
usemtl Material
f 40/1/1 41/2/1 7/3/1 3/4/1
f 23/5/2 3/4/2 7/6/2 19/7/2
f 28/8/3 12/9/3 16/9/3 34/10/3
f 37/11/4 44/12/4 4/13/4 8/14/4
f 75/15/5 40/1/5 3/4/5 23/5/5
f 26/16/3 5/17/3 1/18/3 20/19/3
f 6/20/3 12/9/3 9/21/3 2/22/3
f 44/12/6 49/23/6 11/24/6 4/13/6
f 35/25/7 52/26/7 12/9/7 6/20/7
f 4/13/2 11/24/2 10/27/2 8/28/2
f 66/29/7 55/30/7 15/17/7 32/16/7
f 43/31/1 5/32/1 15/32/1 55/31/1
f 50/33/4 10/34/4 13/34/4 56/35/4
f 19/7/2 7/6/2 14/6/2 31/7/2
f 10/27/2 17/36/2 29/37/2 13/27/2
f 17/36/8 18/38/8 30/38/8 29/37/8
f 18/38/2 19/7/2 31/7/2 30/38/2
f 58/39/7 61/40/7 34/10/7 16/9/7
f 61/40/7 63/41/7 33/42/7 34/10/7
f 63/41/7 66/29/7 32/16/7 33/42/7
f 12/9/3 28/8/3 22/43/3 9/21/3
f 28/8/9 27/42/9 21/44/9 22/43/9
f 27/42/3 26/16/3 20/19/3 21/44/3
f 49/23/6 69/45/6 25/46/6 11/24/6
f 69/45/10 72/47/10 24/48/10 25/46/10
f 72/47/5 75/15/5 23/5/5 24/48/5
f 5/17/3 26/16/3 32/16/3 15/17/3
f 26/16/3 27/42/3 33/42/3 32/16/3
f 27/42/9 28/8/9 34/10/9 33/42/9
f 11/24/2 25/46/2 17/36/2 10/27/2
f 25/46/8 24/48/8 18/38/8 17/36/8
f 24/48/2 23/5/2 19/7/2 18/38/2
f 21/44/11 20/19/11 73/49/11 70/50/11
f 70/50/12 73/49/12 74/51/12 71/52/12
f 71/52/12 74/51/12 75/15/12 72/47/12
f 22/43/13 21/44/13 70/50/13 67/53/13
f 67/53/12 70/50/12 71/52/12 68/54/12
f 68/54/12 71/52/12 72/47/12 69/45/12
f 9/21/14 22/43/14 67/53/14 47/55/14
f 47/55/12 67/53/12 68/54/12 48/56/12
f 48/56/12 68/54/12 69/45/12 49/23/12
f 30/57/7 31/58/7 64/59/7 62/60/7
f 60/61/4 59/62/4 82/62/4 83/61/4
f 62/60/2 64/59/2 88/59/2 85/60/2
f 29/63/7 30/57/7 62/60/7 59/62/7
f 64/59/1 65/64/1 89/64/1 88/59/1
f 66/29/3 63/41/3 87/41/3 90/29/3
f 13/34/7 29/63/7 59/62/7 56/35/7
f 56/35/7 59/62/7 60/61/7 57/65/7
f 57/65/7 60/61/7 61/40/7 58/39/7
f 12/9/4 52/26/4 58/39/4 16/9/4
f 52/26/4 51/65/4 57/65/4 58/39/4
f 51/65/4 50/33/4 56/35/4 57/65/4
f 7/3/1 41/2/1 53/2/1 14/3/1
f 41/2/1 42/66/1 54/66/1 53/2/1
f 42/66/1 43/31/1 55/31/1 54/66/1
f 31/58/7 14/67/7 53/68/7 64/59/7
f 64/59/7 53/68/7 54/69/7 65/64/7
f 65/64/7 54/69/7 55/30/7 66/29/7
f 8/70/7 10/34/7 50/33/7 37/71/7
f 37/71/7 50/33/7 51/65/7 36/72/7
f 36/72/7 51/65/7 52/26/7 35/25/7
f 2/22/14 9/21/14 47/55/14 46/73/14
f 46/73/12 47/55/12 48/56/12 45/74/12
f 45/74/12 48/56/12 49/23/12 44/12/12
f 20/19/11 1/18/11 38/75/11 73/49/11
f 73/49/12 38/75/12 39/76/12 74/51/12
f 74/51/12 39/76/12 40/1/12 75/15/12
f 6/77/4 2/22/4 46/73/4 35/78/4
f 35/78/4 46/73/4 45/74/4 36/79/4
f 36/79/4 45/74/4 44/12/4 37/11/4
f 1/18/1 5/32/1 43/31/1 38/75/1
f 40/1/15 39/76/15 77/76/15 78/1/15
f 42/66/16 41/2/16 79/2/16 80/66/16
f 76/75/1 81/31/1 80/66/1 77/76/1
f 77/76/1 80/66/1 79/2/1 78/1/1
f 43/31/16 42/66/16 80/66/16 81/31/16
f 41/2/2 40/1/2 78/1/2 79/2/2
f 38/75/3 43/31/3 81/31/3 76/75/3
f 39/76/15 38/75/15 76/75/15 77/76/15
f 85/60/7 88/59/7 89/64/7 86/80/7
f 86/80/7 89/64/7 90/29/7 87/41/7
f 82/62/7 85/60/7 86/80/7 83/61/7
f 83/61/7 86/80/7 87/41/7 84/40/7
f 63/41/17 61/40/17 84/40/17 87/41/17
f 59/62/18 62/60/18 85/60/18 82/62/18
f 65/64/1 66/29/1 90/29/1 89/64/1
f 61/40/4 60/61/4 83/61/4 84/40/4
